<?xml version="1.0" encoding="UTF-8" standalone="no"?>
<!DOCTYPE svg PUBLIC "-//W3C//DTD SVG 1.1//EN" "http://www.w3.org/Graphics/SVG/1.1/DTD/svg11.dtd">
<svg width="100%" height="100%" viewBox="0 0 1696 1894" version="1.1" xmlns="http://www.w3.org/2000/svg" xmlns:xlink="http://www.w3.org/1999/xlink" xml:space="preserve" xmlns:serif="http://www.serif.com/" style="fill-rule:evenodd;clip-rule:evenodd;stroke-linecap:round;stroke-linejoin:round;stroke-miterlimit:1.5;">
    <g transform="matrix(1,0,0,1,343.348,404.633)">
        <g transform="matrix(0.768237,0.640166,-0.640166,0.768237,380.222,-687.479)">
            <path d="M534,290.1C534,278.455 524.545,269 512.9,269L133.1,269C121.455,269 112,278.455 112,290.1L112,757.65C112,769.295 121.455,778.75 133.1,778.75L512.9,778.75C524.545,778.75 534,769.295 534,757.65L534,290.1Z" style="fill:none;stroke:rgb(58,58,58);stroke-width:2px;"/>
            <g transform="matrix(1,0,0,0.431339,0,152.97)">
                <path d="M534,294.488C534,280.421 529.074,269 523.006,269L122.994,269C116.926,269 112,280.421 112,294.488L112,753.262C112,767.329 116.926,778.75 122.994,778.75L523.006,778.75C529.074,778.75 534,767.329 534,753.262L534,294.488Z" style="fill:rgb(58,58,58);"/>
            </g>
            <g>
                <g transform="matrix(0.71327,0,0,0.0762629,68.1137,519.485)">
                    <path d="M534,523.875C534,383.206 521.789,269 506.749,269L139.251,269C124.211,269 112,383.206 112,523.875C112,664.544 124.211,778.75 139.251,778.75L506.749,778.75C521.789,778.75 534,664.544 534,523.875Z" style="fill:rgb(58,58,58);"/>
                </g>
                <g transform="matrix(0.611374,0,0,0.0762629,79.5261,584.36)">
                    <path d="M534,523.875C534,383.206 519.754,269 502.207,269L143.793,269C126.246,269 112,383.206 112,523.875C112,664.544 126.246,778.75 143.793,778.75L502.207,778.75C519.754,778.75 534,664.544 534,523.875Z" style="fill:rgb(58,58,58);"/>
                </g>
            </g>
            <g transform="matrix(0.250917,0,-3.74325e-18,0.0674324,263.035,698.928)">
                <path d="M534,523.875C534,383.206 503.308,269 465.504,269L180.496,269C142.692,269 112,383.206 112,523.875C112,664.544 142.692,778.75 180.496,778.75L465.504,778.75C503.308,778.75 534,664.544 534,523.875Z" style="fill:rgb(123,123,123);"/>
            </g>
            <g transform="matrix(0.250917,0,-3.74325e-18,0.0674324,377.03,698.928)">
                <path d="M534,523.875C534,383.206 503.308,269 465.504,269L180.496,269C142.692,269 112,383.206 112,523.875C112,664.544 142.692,778.75 180.496,778.75L465.504,778.75C503.308,778.75 534,664.544 534,523.875Z" style="fill:rgb(182,182,182);"/>
            </g>
        </g>
        <g transform="matrix(0.768237,0.640166,-0.640166,0.768237,749.222,-391.492)">
            <path d="M534,290.1C534,278.455 524.545,269 512.9,269L133.1,269C121.455,269 112,278.455 112,290.1L112,757.65C112,769.295 121.455,778.75 133.1,778.75L512.9,778.75C524.545,778.75 534,769.295 534,757.65L534,290.1Z" style="fill:none;stroke:rgb(58,58,58);stroke-width:2px;"/>
            <g transform="matrix(1,0,0,0.431339,0,152.97)">
                <path d="M534,294.488C534,280.421 529.074,269 523.006,269L122.994,269C116.926,269 112,280.421 112,294.488L112,753.262C112,767.329 116.926,778.75 122.994,778.75L523.006,778.75C529.074,778.75 534,767.329 534,753.262L534,294.488Z" style="fill:rgb(58,58,58);"/>
            </g>
            <g>
                <g transform="matrix(0.71327,0,0,0.0762629,68.1137,519.485)">
                    <path d="M534,523.875C534,383.206 521.789,269 506.749,269L139.251,269C124.211,269 112,383.206 112,523.875C112,664.544 124.211,778.75 139.251,778.75L506.749,778.75C521.789,778.75 534,664.544 534,523.875Z" style="fill:rgb(58,58,58);"/>
                </g>
                <g transform="matrix(0.611374,0,0,0.0762629,79.5261,584.36)">
                    <path d="M534,523.875C534,383.206 519.754,269 502.207,269L143.793,269C126.246,269 112,383.206 112,523.875C112,664.544 126.246,778.75 143.793,778.75L502.207,778.75C519.754,778.75 534,664.544 534,523.875Z" style="fill:rgb(58,58,58);"/>
                </g>
            </g>
            <g transform="matrix(0.250917,0,-3.74325e-18,0.0674324,263.035,698.928)">
                <path d="M534,523.875C534,383.206 503.308,269 465.504,269L180.496,269C142.692,269 112,383.206 112,523.875C112,664.544 142.692,778.75 180.496,778.75L465.504,778.75C503.308,778.75 534,664.544 534,523.875Z" style="fill:rgb(123,123,123);"/>
            </g>
            <g transform="matrix(0.250917,0,-3.74325e-18,0.0674324,377.03,698.928)">
                <path d="M534,523.875C534,383.206 503.308,269 465.504,269L180.496,269C142.692,269 112,383.206 112,523.875C112,664.544 142.692,778.75 180.496,778.75L465.504,778.75C503.308,778.75 534,664.544 534,523.875Z" style="fill:rgb(182,182,182);"/>
            </g>
        </g>
        <g transform="matrix(0.768237,0.640166,-0.640166,0.768237,1118.22,-107.915)">
            <path d="M534,290.1C534,278.455 524.545,269 512.9,269L133.1,269C121.455,269 112,278.455 112,290.1L112,757.65C112,769.295 121.455,778.75 133.1,778.75L512.9,778.75C524.545,778.75 534,769.295 534,757.65L534,290.1Z" style="fill:none;stroke:rgb(58,58,58);stroke-width:2px;"/>
            <g transform="matrix(1,0,0,0.431339,0,152.97)">
                <path d="M534,294.488C534,280.421 529.074,269 523.006,269L122.994,269C116.926,269 112,280.421 112,294.488L112,753.262C112,767.329 116.926,778.75 122.994,778.75L523.006,778.75C529.074,778.75 534,767.329 534,753.262L534,294.488Z" style="fill:rgb(58,58,58);"/>
            </g>
            <g>
                <g transform="matrix(0.71327,0,0,0.0762629,68.1137,519.485)">
                    <path d="M534,523.875C534,383.206 521.789,269 506.749,269L139.251,269C124.211,269 112,383.206 112,523.875C112,664.544 124.211,778.75 139.251,778.75L506.749,778.75C521.789,778.75 534,664.544 534,523.875Z" style="fill:rgb(58,58,58);"/>
                </g>
                <g transform="matrix(0.611374,0,0,0.0762629,79.5261,584.36)">
                    <path d="M534,523.875C534,383.206 519.754,269 502.207,269L143.793,269C126.246,269 112,383.206 112,523.875C112,664.544 126.246,778.75 143.793,778.75L502.207,778.75C519.754,778.75 534,664.544 534,523.875Z" style="fill:rgb(58,58,58);"/>
                </g>
            </g>
            <g transform="matrix(0.250917,0,-3.74325e-18,0.0674324,263.035,698.928)">
                <path d="M534,523.875C534,383.206 503.308,269 465.504,269L180.496,269C142.692,269 112,383.206 112,523.875C112,664.544 142.692,778.75 180.496,778.75L465.504,778.75C503.308,778.75 534,664.544 534,523.875Z" style="fill:rgb(123,123,123);"/>
            </g>
            <g transform="matrix(0.250917,0,-3.74325e-18,0.0674324,377.03,698.928)">
                <path d="M534,523.875C534,383.206 503.308,269 465.504,269L180.496,269C142.692,269 112,383.206 112,523.875C112,664.544 142.692,778.75 180.496,778.75L465.504,778.75C503.308,778.75 534,664.544 534,523.875Z" style="fill:rgb(182,182,182);"/>
            </g>
        </g>
        <g transform="matrix(0.768237,0.640166,-0.640166,0.768237,181.298,-107.915)">
            <path d="M534,290.1C534,278.455 524.545,269 512.9,269L133.1,269C121.455,269 112,278.455 112,290.1L112,757.65C112,769.295 121.455,778.75 133.1,778.75L512.9,778.75C524.545,778.75 534,769.295 534,757.65L534,290.1Z" style="fill:none;stroke:rgb(58,58,58);stroke-width:2px;"/>
            <g transform="matrix(1,0,0,0.431339,0,152.97)">
                <path d="M534,294.488C534,280.421 529.074,269 523.006,269L122.994,269C116.926,269 112,280.421 112,294.488L112,753.262C112,767.329 116.926,778.75 122.994,778.75L523.006,778.75C529.074,778.75 534,767.329 534,753.262L534,294.488Z" style="fill:rgb(58,58,58);"/>
            </g>
            <g>
                <g transform="matrix(0.71327,0,0,0.0762629,68.1137,519.485)">
                    <path d="M534,523.875C534,383.206 521.789,269 506.749,269L139.251,269C124.211,269 112,383.206 112,523.875C112,664.544 124.211,778.75 139.251,778.75L506.749,778.75C521.789,778.75 534,664.544 534,523.875Z" style="fill:rgb(58,58,58);"/>
                </g>
                <g transform="matrix(0.611374,0,0,0.0762629,79.5261,584.36)">
                    <path d="M534,523.875C534,383.206 519.754,269 502.207,269L143.793,269C126.246,269 112,383.206 112,523.875C112,664.544 126.246,778.75 143.793,778.75L502.207,778.75C519.754,778.75 534,664.544 534,523.875Z" style="fill:rgb(58,58,58);"/>
                </g>
            </g>
            <g transform="matrix(0.250917,0,-3.74325e-18,0.0674324,263.035,698.928)">
                <path d="M534,523.875C534,383.206 503.308,269 465.504,269L180.496,269C142.692,269 112,383.206 112,523.875C112,664.544 142.692,778.75 180.496,778.75L465.504,778.75C503.308,778.75 534,664.544 534,523.875Z" style="fill:rgb(123,123,123);"/>
            </g>
            <g transform="matrix(0.250917,0,-3.74325e-18,0.0674324,377.03,698.928)">
                <path d="M534,523.875C534,383.206 503.308,269 465.504,269L180.496,269C142.692,269 112,383.206 112,523.875C112,664.544 142.692,778.75 180.496,778.75L465.504,778.75C503.308,778.75 534,664.544 534,523.875Z" style="fill:rgb(182,182,182);"/>
            </g>
        </g>
        <g transform="matrix(0.768237,0.640166,-0.640166,0.768237,537.298,196.085)">
            <path d="M534,290.1C534,278.455 524.545,269 512.9,269L133.1,269C121.455,269 112,278.455 112,290.1L112,757.65C112,769.295 121.455,778.75 133.1,778.75L512.9,778.75C524.545,778.75 534,769.295 534,757.65L534,290.1Z" style="fill:none;stroke:rgb(58,58,58);stroke-width:2px;"/>
            <g transform="matrix(1,0,0,0.431339,0,152.97)">
                <path d="M534,294.488C534,280.421 529.074,269 523.006,269L122.994,269C116.926,269 112,280.421 112,294.488L112,753.262C112,767.329 116.926,778.75 122.994,778.75L523.006,778.75C529.074,778.75 534,767.329 534,753.262L534,294.488Z" style="fill:rgb(58,58,58);"/>
            </g>
            <g>
                <g transform="matrix(0.71327,0,0,0.0762629,68.1137,519.485)">
                    <path d="M534,523.875C534,383.206 521.789,269 506.749,269L139.251,269C124.211,269 112,383.206 112,523.875C112,664.544 124.211,778.75 139.251,778.75L506.749,778.75C521.789,778.75 534,664.544 534,523.875Z" style="fill:rgb(58,58,58);"/>
                </g>
                <g transform="matrix(0.611374,0,0,0.0762629,79.5261,584.36)">
                    <path d="M534,523.875C534,383.206 519.754,269 502.207,269L143.793,269C126.246,269 112,383.206 112,523.875C112,664.544 126.246,778.75 143.793,778.75L502.207,778.75C519.754,778.75 534,664.544 534,523.875Z" style="fill:rgb(58,58,58);"/>
                </g>
            </g>
            <g transform="matrix(0.250917,0,-3.74325e-18,0.0674324,263.035,698.928)">
                <path d="M534,523.875C534,383.206 503.308,269 465.504,269L180.496,269C142.692,269 112,383.206 112,523.875C112,664.544 142.692,778.75 180.496,778.75L465.504,778.75C503.308,778.75 534,664.544 534,523.875Z" style="fill:rgb(123,123,123);"/>
            </g>
            <g transform="matrix(0.250917,0,-3.74325e-18,0.0674324,377.03,698.928)">
                <path d="M534,523.875C534,383.206 503.308,269 465.504,269L180.496,269C142.692,269 112,383.206 112,523.875C112,664.544 142.692,778.75 180.496,778.75L465.504,778.75C503.308,778.75 534,664.544 534,523.875Z" style="fill:rgb(182,182,182);"/>
            </g>
        </g>
        <g transform="matrix(0.768237,0.640166,-0.640166,0.768237,906.298,494.085)">
            <path d="M534,290.1C534,278.455 524.545,269 512.9,269L133.1,269C121.455,269 112,278.455 112,290.1L112,757.65C112,769.295 121.455,778.75 133.1,778.75L512.9,778.75C524.545,778.75 534,769.295 534,757.65L534,290.1Z" style="fill:none;stroke:rgb(58,58,58);stroke-width:2px;"/>
            <g transform="matrix(1,0,0,0.431339,0,152.97)">
                <path d="M534,294.488C534,280.421 529.074,269 523.006,269L122.994,269C116.926,269 112,280.421 112,294.488L112,753.262C112,767.329 116.926,778.75 122.994,778.75L523.006,778.75C529.074,778.75 534,767.329 534,753.262L534,294.488Z" style="fill:rgb(58,58,58);"/>
            </g>
            <g>
                <g transform="matrix(0.71327,0,0,0.0762629,68.1137,519.485)">
                    <path d="M534,523.875C534,383.206 521.789,269 506.749,269L139.251,269C124.211,269 112,383.206 112,523.875C112,664.544 124.211,778.75 139.251,778.75L506.749,778.75C521.789,778.75 534,664.544 534,523.875Z" style="fill:rgb(58,58,58);"/>
                </g>
                <g transform="matrix(0.611374,0,0,0.0762629,79.5261,584.36)">
                    <path d="M534,523.875C534,383.206 519.754,269 502.207,269L143.793,269C126.246,269 112,383.206 112,523.875C112,664.544 126.246,778.75 143.793,778.75L502.207,778.75C519.754,778.75 534,664.544 534,523.875Z" style="fill:rgb(58,58,58);"/>
                </g>
            </g>
            <g transform="matrix(0.250917,0,-3.74325e-18,0.0674324,263.035,698.928)">
                <path d="M534,523.875C534,383.206 503.308,269 465.504,269L180.496,269C142.692,269 112,383.206 112,523.875C112,664.544 142.692,778.75 180.496,778.75L465.504,778.75C503.308,778.75 534,664.544 534,523.875Z" style="fill:rgb(123,123,123);"/>
            </g>
            <g transform="matrix(0.250917,0,-3.74325e-18,0.0674324,377.03,698.928)">
                <path d="M534,523.875C534,383.206 503.308,269 465.504,269L180.496,269C142.692,269 112,383.206 112,523.875C112,664.544 142.692,778.75 180.496,778.75L465.504,778.75C503.308,778.75 534,664.544 534,523.875Z" style="fill:rgb(182,182,182);"/>
            </g>
        </g>
        <g transform="matrix(0.768237,0.640166,-0.640166,0.768237,61.518,556.085)">
            <path d="M534,290.1C534,278.455 524.545,269 512.9,269L133.1,269C121.455,269 112,278.455 112,290.1L112,757.65C112,769.295 121.455,778.75 133.1,778.75L512.9,778.75C524.545,778.75 534,769.295 534,757.65L534,290.1Z" style="fill:none;stroke:rgb(58,58,58);stroke-width:2px;"/>
            <g transform="matrix(1,0,0,0.431339,0,152.97)">
                <path d="M534,294.488C534,280.421 529.074,269 523.006,269L122.994,269C116.926,269 112,280.421 112,294.488L112,753.262C112,767.329 116.926,778.75 122.994,778.75L523.006,778.75C529.074,778.75 534,767.329 534,753.262L534,294.488Z" style="fill:rgb(58,58,58);"/>
            </g>
            <g>
                <g transform="matrix(0.71327,0,0,0.0762629,68.1137,519.485)">
                    <path d="M534,523.875C534,383.206 521.789,269 506.749,269L139.251,269C124.211,269 112,383.206 112,523.875C112,664.544 124.211,778.75 139.251,778.75L506.749,778.75C521.789,778.75 534,664.544 534,523.875Z" style="fill:rgb(58,58,58);"/>
                </g>
                <g transform="matrix(0.611374,0,0,0.0762629,79.5261,584.36)">
                    <path d="M534,523.875C534,383.206 519.754,269 502.207,269L143.793,269C126.246,269 112,383.206 112,523.875C112,664.544 126.246,778.75 143.793,778.75L502.207,778.75C519.754,778.75 534,664.544 534,523.875Z" style="fill:rgb(58,58,58);"/>
                </g>
            </g>
            <g transform="matrix(0.250917,0,-3.74325e-18,0.0674324,263.035,698.928)">
                <path d="M534,523.875C534,383.206 503.308,269 465.504,269L180.496,269C142.692,269 112,383.206 112,523.875C112,664.544 142.692,778.75 180.496,778.75L465.504,778.75C503.308,778.75 534,664.544 534,523.875Z" style="fill:rgb(123,123,123);"/>
            </g>
            <g transform="matrix(0.250917,0,-3.74325e-18,0.0674324,377.03,698.928)">
                <path d="M534,523.875C534,383.206 503.308,269 465.504,269L180.496,269C142.692,269 112,383.206 112,523.875C112,664.544 142.692,778.75 180.496,778.75L465.504,778.75C503.308,778.75 534,664.544 534,523.875Z" style="fill:rgb(182,182,182);"/>
            </g>
        </g>
    </g>
</svg>
